<svg xmlns="http://www.w3.org/2000/svg" viewBox="0 0 100 150"><defs><linearGradient id="bunGrad" x1="0%" y1="0%" x2="0%" y2="100%"><stop offset="0%" style="stop-color:#F4A460"/><stop offset="100%" style="stop-color:#D2691E"/></linearGradient></defs><g id="body"><ellipse cx="50" cy="115" rx="8" ry="12" fill="#D2691E"/><ellipse cx="35" cy="100" rx="6" ry="10" fill="#D2691E" transform="rotate(-20 35 100)"/><ellipse cx="65" cy="100" rx="6" ry="10" fill="#D2691E" transform="rotate(20 65 100)"/><ellipse cx="50" cy="130" rx="35" ry="12" fill="#D2691E"/><rect x="15" y="118" width="70" height="12" fill="#D2691E"/></g><g id="head-bottom"><ellipse cx="50" cy="95" rx="38" ry="10" fill="#8B4513"/><rect x="12" y="85" width="76" height="10" fill="#8B4513"/><path d="M15 80 Q10 85 12 95 L88 95 Q90 85 85 80 Z" fill="#FFDB58"/><path d="M12 78 Q8 72 15 68 L85 68 Q92 72 88 78 Z" fill="#228B22"/><path d="M15 68 L12 72 Q10 65 18 62 L82 62 Q90 65 88 72 L85 68 Z" fill="#FF6347"/><ellipse cx="50" cy="62" rx="36" ry="8" fill="#CD853F"/><path id="mouth-closed" d="M40 100 Q50 106 60 100" fill="none" stroke="#5D3A1A" stroke-width="2" stroke-linecap="round"/><ellipse id="mouth-open" cx="50" cy="102" rx="8" ry="5" fill="#5D3A1A" opacity="0"/></g><g id="head-top"><path d="M15 62 Q12 55 18 48 Q25 38 50 35 Q75 38 82 48 Q88 55 85 62 Z" fill="url(#bunGrad)"/><ellipse cx="50" cy="48" rx="32" ry="15" fill="#F4A460"/><circle cx="35" cy="42" r="2" fill="#FAFAD2"/><circle cx="55" cy="38" r="1.5" fill="#FAFAD2"/><circle cx="45" cy="45" r="1.5" fill="#FAFAD2"/><circle cx="62" cy="44" r="2" fill="#FAFAD2"/><circle cx="50" cy="52" r="1" fill="#FAFAD2"/><ellipse id="eye-left-white" cx="38" cy="58" rx="7" ry="6" fill="white"/><ellipse id="eye-right-white" cx="62" cy="58" rx="7" ry="6" fill="white"/><circle id="eye-left-pupil" class="pupil" cx="38" cy="59" r="3" fill="#2F1810"/><circle id="eye-right-pupil" class="pupil" cx="62" cy="59" r="3" fill="#2F1810"/><path id="brow-left" d="M32 52 Q38 50 44 52" fill="none" stroke="#8B4513" stroke-width="2" stroke-linecap="round"/><path id="brow-right" d="M56 52 Q62 50 68 52" fill="none" stroke="#8B4513" stroke-width="2" stroke-linecap="round"/></g></svg>