<svg xmlns="http://www.w3.org/2000/svg" viewBox="0 0 100 150" width="100" height="150" style="cursor: default;"><defs style="cursor: pointer;"><linearGradient id="bunGrad" x1="0%" y1="0%" x2="0%" y2="100%" style="cursor: pointer;"><stop offset="0%" style="stop-color: rgb(244, 164, 96); cursor: pointer;"></stop><stop offset="100%" style="stop-color: rgb(210, 105, 30); cursor: pointer;"></stop></linearGradient></defs><g id="body"><rect x="14.4" y="97.0" width="70" height="12" fill="#D2691E" style="cursor: pointer;" class=""></rect><ellipse cx="49.3" cy="109.7" rx="35" ry="12" fill="#D2691E" style="cursor: pointer;" class=""></ellipse></g><g id="head-bottom"><ellipse cx="50" cy="95" rx="38" ry="10" fill="#8B4513" style="cursor: pointer;"></ellipse><rect x="12" y="85" width="76" height="10" fill="#8B4513" style="cursor: pointer;"></rect><path d="M15 80 Q10 85 12 95 L88 95 Q90 85 85 80 Z" fill="#FFDB58" style="cursor: pointer;" class="" transform="translate(0.0, -2.3)"></path><path d="M12 78 Q8 72 15 68 L85 68 Q92 72 88 78 Z" fill="#228B22" style="cursor: pointer;"></path><path d="M15 68 L12 72 Q10 65 18 62 L82 62 Q90 65 88 72 L85 68 Z" fill="#FF6347" style="cursor: pointer;"></path><ellipse cx="50" cy="62" rx="36" ry="8" fill="#CD853F" style="cursor: pointer;"></ellipse><path id="mouth-closed" d="M40 100 Q50 106 60 100" fill="none" stroke="#5D3A1A" stroke-width="2" stroke-linecap="round" style="cursor: pointer;"></path><ellipse id="mouth-open" cx="50" cy="102" rx="8" ry="5" fill="#5D3A1A" opacity="0" style="cursor: pointer;"></ellipse></g><g id="head-top"><path d="M15 62 Q12 55 18 48 Q25 38 50 35 Q75 38 82 48 Q88 55 85 62 Z" fill="url(#bunGrad)" style="cursor: pointer;"></path><ellipse cx="50" cy="48" rx="32" ry="15" fill="#F4A460" style="cursor: pointer;"></ellipse><circle cx="35" cy="42" r="2" fill="#FAFAD2" style="cursor: pointer;"></circle><circle cx="55" cy="38" r="1.5" fill="#FAFAD2" style="cursor: pointer;"></circle><circle cx="45" cy="45" r="1.5" fill="#FAFAD2" style="cursor: pointer;"></circle><circle cx="62" cy="44" r="2" fill="#FAFAD2" style="cursor: pointer;"></circle><circle cx="50" cy="52" r="1" fill="#FAFAD2" style="cursor: pointer;"></circle><ellipse id="eye-left-white" cx="38" cy="58" rx="7" ry="6" fill="white" style="cursor: pointer;"></ellipse><ellipse id="eye-right-white" cx="62" cy="58" rx="7" ry="6" fill="white" style="cursor: pointer;"></ellipse><circle id="eye-left-pupil" class="pupil" cx="38" cy="59" r="3" fill="#2F1810" style="cursor: pointer;"></circle><circle id="eye-right-pupil" class="pupil" cx="62" cy="59" r="3" fill="#2F1810" style="cursor: pointer;"></circle><path id="brow-left" d="M32 52 Q38 50 44 52" fill="none" stroke="#8B4513" stroke-width="2" stroke-linecap="round" style="cursor: pointer;"></path><path id="brow-right" d="M56 52 Q62 50 68 52" fill="none" stroke="#8B4513" stroke-width="2" stroke-linecap="round" style="cursor: pointer;"></path></g></svg>