<svg xmlns="http://www.w3.org/2000/svg" width="1280" height="720" viewBox="0 0 1000 562.5" role="img"><title>Airport departure lounge</title><desc>Broad terminal windows overlooking a parked plane silhouette, overhead gate sign and seating.</desc><rect x="0" y="0" width="1000" height="562.5" rx="0" fill="#d6e2df"/><rect x="0" y="360.0" width="1000" height="202.5" rx="0" fill="#9faeac"/><rect x="0" y="352.0" width="1000" height="8" rx="0" fill="#293f49"/><rect x="15" y="35" width="970" height="300.0" rx="5" fill="#254f61"/><rect x="25" y="45" width="950" height="280.0" rx="0" fill="#a9d3db"/><path d="M50 250.0L945 250.0L960 275.0H45Z" fill="#f2e5c7"/><path d="M400.0 185.0H610.0L660.0 215.0H400.0L370.0 168.0H390.0Z" fill="#f2e5c7"/><path d="M470.0 200.0L540.0 130.0H562.0L520.0 200.0Z" fill="#f2e5c7"/><rect x="250.0" y="35" width="10" height="300.0" rx="0" fill="#254f61"/><rect x="500.0" y="35" width="10" height="300.0" rx="0" fill="#254f61"/><rect x="750.0" y="35" width="10" height="300.0" rx="0" fill="#254f61"/><rect x="390.0" y="12" width="220" height="50" rx="7" fill="#254f61"/><text x="500.0" y="46" text-anchor="middle" font-family="sans-serif" font-weight="700" font-size="24" fill="#f2e5c7">GATES  →</text><rect x="25" y="375.0" width="140" height="20" rx="6" fill="#4b8e91"/><rect x="40" y="395.0" width="9" height="32" rx="0" fill="#293f49"/><rect x="140" y="395.0" width="9" height="32" rx="0" fill="#293f49"/></svg>