<svg xmlns="http://www.w3.org/2000/svg" viewBox="0 0 100 150" role="img" aria-label="Small dramatic dragon"><title>Small dramatic dragon</title><g id="body"><path d="M29 80 L9 61 L5 105 L29 99 M70 79 L92 63 L95 105 L74 98" fill="#cd6554" stroke="#243640" stroke-width="2" stroke-linejoin="round" stroke-linecap="round"/><path d="M33 75 Q20 104 31 127 L20 141 L42 141 L49 120 L60 141 L79 141 L68 128 Q85 101 68 75Z" fill="#cd6554" stroke="#243640" stroke-width="2" stroke-linejoin="round" stroke-linecap="round"/><path d="M71 119 Q95 132 88 110 L96 119 Q93 144 68 132Z" fill="#cd6554" stroke="#243640" stroke-width="2" stroke-linejoin="round" stroke-linecap="round"/><ellipse cx="50" cy="108" rx="18" ry="24" fill="#efbd5b"/><path d="M36 106 L65 106 M37 114 L63 114" fill="none" stroke="#243640" stroke-width="1" stroke-linejoin="round" stroke-linecap="round"/></g><g id="head-top"><path d="M28 31 L28 9 L40 27 M62 27 L75 9 L72 36" fill="#efbd5b" stroke="#243640" stroke-width="2" stroke-linejoin="round" stroke-linecap="round"/><path d="M27 35 Q49 23 70 35 L77 56 L68 78 L34 78 L23 56Z" fill="#cd6554" stroke="#243640" stroke-width="2" stroke-linejoin="round" stroke-linecap="round"/><path d="M31 58 L68 58 L65 73 L36 73Z" fill="#efbd5b" stroke="#243640" stroke-width="2" stroke-linejoin="round" stroke-linecap="round"/><ellipse cx="40" cy="60" rx="2" ry="2" fill="#243640"/><ellipse cx="60" cy="60" rx="2" ry="2" fill="#243640"/><ellipse id="eye-left-white" cx="38" cy="48" rx="5" ry="6" fill="#fff1d5"/><circle id="eye-left-pupil" class="pupil" cx="39" cy="49" r="2.5" fill="#243640"/><circle id="eye-left-highlight" cx="40" cy="47" r="1.5" fill="white" opacity="0"/><path id="brow-left" d="M33 39 Q38 36 43 39" fill="none" stroke="#243640" stroke-width="2" stroke-linecap="round"/><ellipse id="eye-right-white" cx="62" cy="48" rx="5" ry="6" fill="#fff1d5"/><circle id="eye-right-pupil" class="pupil" cx="63" cy="49" r="2.5" fill="#243640"/><circle id="eye-right-highlight" cx="64" cy="47" r="1.5" fill="white" opacity="0"/><path id="brow-right" d="M57 39 Q62 36 67 39" fill="none" stroke="#243640" stroke-width="2" stroke-linecap="round"/></g><g id="head-bottom"><path id="mouth-closed" d="M44 64 Q50 68 57 64" fill="none" stroke="#243640" stroke-width="2" stroke-linecap="round"/><ellipse id="mouth-open" cx="50" cy="65" rx="5" ry="3" fill="#243640" opacity="0"/></g></svg>