<svg xmlns="http://www.w3.org/2000/svg" width="1280" height="720" viewBox="0 0 1000 562.5" role="img"><title>Police station reception</title><desc>Reception desk, investigation noticeboard and shield emblem for police procedural scenes.</desc><rect x="0" y="0" width="1000" height="562.5" rx="0" fill="#c9d8d5"/><rect x="0" y="360.0" width="1000" height="202.5" rx="0" fill="#a3aba1"/><rect x="0" y="352.0" width="1000" height="8" rx="0" fill="#293f49"/><rect x="35" y="55" width="180" height="235.0" rx="6" fill="#293f49"/><rect x="45" y="65" width="160" height="215.0" rx="0" fill="#ae9874"/><rect x="62" y="95" width="55" height="75" rx="0" fill="#f2e5c7"/><rect x="131" y="115" width="54" height="62" rx="0" fill="#f2e5c7"/><path d="M902 52L960 75V140Q932 188 902 197Q872 177 844 140V75Z" fill="#254f61"/><ellipse cx="902" cy="115" rx="22" ry="22" fill="#dbaa55"/><rect x="405.0" y="300.0" width="190" height="110" rx="0" fill="#4b8e91"/><rect x="392.0" y="286.0" width="216" height="18" rx="0" fill="#293f49"/><rect x="470.0" y="243.0" width="60" height="43" rx="5" fill="#293f49"/></svg>