<svg xmlns="http://www.w3.org/2000/svg" width="1280" height="720" viewBox="0 0 1000 562.5" role="img"><title>Inside a city bus</title><desc>A symmetrical aisle with paired seats, broad windows and yellow grab rails.</desc><rect x="0" y="0" width="1000" height="562.5" rx="0" fill="#dbcfae"/><rect x="0" y="360.0" width="1000" height="202.5" rx="0" fill="#909f99"/><rect x="0" y="352.0" width="1000" height="8" rx="0" fill="#293f49"/><rect x="0" y="0" width="1000" height="28" rx="0" fill="#293f49"/><rect x="20" y="65" width="150" height="160.0" rx="8" fill="#293f49"/><rect x="28" y="73" width="134" height="144.0" rx="3" fill="#a2cbd1"/><path d="M95.0 73L95.0 217.0" stroke="#f2e5c7" stroke-width="6" fill="none"/><path d="M28 145.0L162 145.0" stroke="#f2e5c7" stroke-width="6" fill="none"/><rect x="830" y="65" width="150" height="160.0" rx="8" fill="#293f49"/><rect x="838" y="73" width="134" height="144.0" rx="3" fill="#a2cbd1"/><path d="M905.0 73L905.0 217.0" stroke="#f2e5c7" stroke-width="6" fill="none"/><path d="M838 145.0L972 145.0" stroke="#f2e5c7" stroke-width="6" fill="none"/><rect x="410.0" y="50" width="180" height="230.0" rx="20" fill="#4b8e91"/><rect x="424.0" y="65" width="152" height="200.0" rx="15" fill="#a2cbd1"/><rect x="30" y="240.0" width="140" height="140" rx="20" fill="#b9614e"/><rect x="830" y="240.0" width="140" height="140" rx="20" fill="#b9614e"/><rect x="20" y="340.0" width="165" height="30" rx="8" fill="#293f49"/><rect x="815" y="340.0" width="165" height="30" rx="8" fill="#293f49"/><rect x="188" y="25" width="10" height="460.0" rx="0" fill="#dbaa55"/><rect x="802" y="25" width="10" height="460.0" rx="0" fill="#dbaa55"/><path d="M193 45L807 45" stroke="#dbaa55" stroke-width="10" fill="none"/></svg>