<svg xmlns="http://www.w3.org/2000/svg" viewBox="0 0 320 320">
<title>Mop and bucket</title>
<g stroke="#263e44" stroke-width="6" stroke-linecap="round" stroke-linejoin="round"><path d="M222 21 140 218" fill="none" stroke="#ac7749" stroke-width="13"/><path d="M70 170q-7-82 80-84 88 0 78 89" fill="none" stroke-width="8"/><path d="M56 169h197l-23 128H82Z" fill="#ce6550" /><path d="M57 169q96-35 196 0-95 31-196 0Z" fill="#547c99" /><path d="M138 144q-30 10-51 54l19-8-5 42 23-21 8 22 18-27 19 13 2-29 21 9q-6-45-30-57Z" fill="#f4e5bf" /><path d="m117 172-13 32m33-40-9 39m28-42 7 39" fill="none" stroke="#b9ac86" stroke-width="4"/><path d="M107 266q43 13 86-2" fill="none" stroke="#e69a72"/></g>
</svg>
