<svg xmlns="http://www.w3.org/2000/svg" viewBox="0 0 100 150" role="img" aria-label="Helpful box robot"><title>Helpful box robot</title><g id="body"><path d="M26 81 L13 96 L16 116 L24 116 L25 101 L31 94 M72 82 L88 94 L85 115 L77 115 L78 101 L69 96" fill="#4b8395" stroke="#243640" stroke-width="2" stroke-linejoin="round" stroke-linecap="round"/><rect x="29" y="77" width="42" height="45" rx="2" fill="#fff1d5" stroke="#243640" stroke-width="2"/><rect x="32" y="123" width="12" height="20" rx="2" fill="#4b8395" stroke="#243640" stroke-width="2"/><rect x="58" y="123" width="12" height="20" rx="2" fill="#4b8395" stroke="#243640" stroke-width="2"/><ellipse cx="50" cy="99" rx="11" ry="11" fill="#efbd5b"/><path d="M50 99 L55 91" fill="none" stroke="#243640" stroke-width="2" stroke-linejoin="round" stroke-linecap="round"/></g><g id="head-top"><rect x="22" y="26" width="56" height="49" rx="8" fill="#4b8395" stroke="#243640" stroke-width="2"/><path d="M61 26 L68 14" fill="none" stroke="#243640" stroke-width="3" stroke-linejoin="round" stroke-linecap="round"/><ellipse cx="69" cy="11" rx="5" ry="5" fill="#cd6554"/><rect x="29" y="34" width="43" height="24" rx="2" fill="#243640" stroke="#243640" stroke-width="2"/><rect x="40" y="62" width="21" height="8" rx="2" fill="#fff1d5" stroke="#243640" stroke-width="2"/><ellipse id="eye-left-white" cx="38" cy="47" rx="5" ry="6" fill="#fff1d5"/><circle id="eye-left-pupil" class="pupil" cx="39" cy="48" r="2.5" fill="#243640"/><circle id="eye-left-highlight" cx="40" cy="46" r="1.5" fill="white" opacity="0"/><path id="brow-left" d="M33 38 Q38 35 43 38" fill="none" stroke="#243640" stroke-width="2" stroke-linecap="round"/><ellipse id="eye-right-white" cx="62" cy="47" rx="5" ry="6" fill="#fff1d5"/><circle id="eye-right-pupil" class="pupil" cx="63" cy="48" r="2.5" fill="#243640"/><circle id="eye-right-highlight" cx="64" cy="46" r="1.5" fill="white" opacity="0"/><path id="brow-right" d="M57 38 Q62 35 67 38" fill="none" stroke="#243640" stroke-width="2" stroke-linecap="round"/></g><g id="head-bottom"><path id="mouth-closed" d="M44 65 Q50 69 57 65" fill="none" stroke="#243640" stroke-width="2" stroke-linecap="round"/><ellipse id="mouth-open" cx="50" cy="66" rx="5" ry="3" fill="#243640" opacity="0"/></g></svg>