<svg xmlns="http://www.w3.org/2000/svg" width="720" height="1280" viewBox="0 0 600 1066.6667" role="img"><title>Neighborhood street</title><desc>A walkable city block with warm shopfronts and a streetlamp along the sidewalk.</desc><rect x="0" y="0" width="600" height="1066.6667" rx="0" fill="#b9d6d5"/><rect x="0" y="789" width="600" height="277.6667" rx="0" fill="#7d9495"/><g transform="translate(0 120)"><rect x="0" y="0" width="600" height="670" rx="0" fill="#b9d6d5"/><rect x="0" y="428.8" width="600" height="241.2" rx="0" fill="#7d9495"/><rect x="0" y="428.8" width="600" height="50" rx="0" fill="#d3c7aa"/><rect x="0" y="478.8" width="600" height="8" rx="0" fill="#293f49"/><rect x="15" y="80" width="180.0" height="348.8" rx="0" fill="#ba8268"/><rect x="396.0" y="30" width="204.00000000000003" height="398.8" rx="0" fill="#f2e5c7"/><rect x="40" y="110" width="95" height="65" rx="8" fill="#293f49"/><rect x="48" y="118" width="79" height="49" rx="3" fill="#a2cbd1"/><path d="M87.5 118L87.5 167" stroke="#f2e5c7" stroke-width="6" fill="none"/><path d="M48 142.5L127 142.5" stroke="#f2e5c7" stroke-width="6" fill="none"/><rect x="40" y="205" width="95" height="65" rx="8" fill="#293f49"/><rect x="48" y="213" width="79" height="49" rx="3" fill="#a2cbd1"/><path d="M87.5 213L87.5 262" stroke="#f2e5c7" stroke-width="6" fill="none"/><path d="M48 237.5L127 237.5" stroke="#f2e5c7" stroke-width="6" fill="none"/><rect x="421.0" y="110" width="95" height="65" rx="8" fill="#293f49"/><rect x="429.0" y="118" width="79" height="49" rx="3" fill="#a2cbd1"/><path d="M468.5 118L468.5 167" stroke="#f2e5c7" stroke-width="6" fill="none"/><path d="M429.0 142.5L508.0 142.5" stroke="#f2e5c7" stroke-width="6" fill="none"/><rect x="421.0" y="205" width="95" height="65" rx="8" fill="#293f49"/><rect x="429.0" y="213" width="79" height="49" rx="3" fill="#a2cbd1"/><path d="M468.5 213L468.5 262" stroke="#f2e5c7" stroke-width="6" fill="none"/><path d="M429.0 237.5L508.0 237.5" stroke="#f2e5c7" stroke-width="6" fill="none"/><rect x="431.0" y="303.8" width="90" height="125" rx="6" fill="#293f49"/><rect x="438.0" y="310.8" width="76" height="118" rx="4" fill="#4b8e91"/><ellipse cx="499.0" cy="378.8" rx="5" ry="5" fill="#dbaa55"/><rect x="285.0" y="100" width="8" height="358.8" rx="0" fill="#293f49"/><path d="M262.0 103H316.0L308.0 57H270.0Z" fill="#293f49"/><rect x="274.0" y="63" width="28" height="30" rx="0" fill="#dbaa55"/></g></svg>