<svg xmlns="http://www.w3.org/2000/svg" width="1280" height="720" viewBox="0 0 1000 562.5" role="img"><title>Limestone cave</title><desc>Deep rock chamber framed by stalactites and a shallow turquoise pool.</desc><rect x="0" y="0" width="1000" height="562.5" rx="0" fill="#293e49"/><path d="M0 300.0Q500.0 210.0 1000 305.0V562.5H0Z" fill="#7c8a82"/><path d="M0 0H1000V160L920 100L880 280L825 95L545.0 130L500.0 300L445.0 125L90 80L48 240L0 170Z" fill="#58716d"/><path d="M0 90L95 230L65 460.0L0 530.0Z" fill="#45605f"/><path d="M1000 120L935 280L970 480.0L1000 520.0Z" fill="#45605f"/><ellipse cx="500.0" cy="520.0" rx="280.0" ry="35" fill="#4e969b"/><path d="M875 470.0L900 370.0L925 470.0Z" fill="#bac8ad"/></svg>